<svg xmlns="http://www.w3.org/2000/svg" xmlns:xlink="http://www.w3.org/1999/xlink" viewBox="0 0 490 490"><defs><style>.cls-1,.cls-5{fill:none;}.cls-2{clip-path:url(#clip-path);}.cls-3{fill:#bf1e2d;}.cls-4{fill:#fff;}.cls-5{stroke:#fff;stroke-miterlimit:10;}</style><clipPath id="clip-path" transform="translate(-5 -5)"><rect class="cls-1" width="500" height="500"/></clipPath></defs><title>katman 1 (2)</title><g id="katman_2" data-name="katman 2"><g id="katman_1-2" data-name="katman 1"><g class="cls-2"><path class="cls-3" d="M495,250c0,135.31-109.69,245-245,245S5,385.31,5,250,114.69,5,250,5,495,114.69,495,250" transform="translate(-5 -5)"/></g><g class="cls-2"><path class="cls-4" d="M254,64.91a27.75,27.75,0,0,0-21.92,8.74,21.73,21.73,0,0,1,3.17,6.84,21.47,21.47,0,0,1,.63,7.34c-.27,1.5-1.79,9.5-6.48,14.08a10.39,10.39,0,0,1-5.74,3.28,8.62,8.62,0,0,1-3.14-.1,9,9,0,0,1-1.61-4.18c-.32-3.09,1.33-4.85,2.47-9.31a28.42,28.42,0,0,0,.82-5.54,34,34,0,0,0-10.51-14.88c-14-11.2-31.89-6.1-33.83-5.51a32.72,32.72,0,0,0-16.21,14.06c3.88,0,33,.23,41.93,18a24,24,0,0,1,2,5.84,34.8,34.8,0,0,1-10.08.6c-7.45-.65-10.94-3.46-20.52-5.79a75.87,75.87,0,0,0-9.18-1.65c-6.69.74-22,3.12-35.76,12-4.55,2.94-11.33,7.44-16.18,16a38.69,38.69,0,0,0-2.79,6.06,24,24,0,0,0,4.72,21.93,71.22,71.22,0,0,1,12.9.14,72.6,72.6,0,0,1,10,1.76L171.37,163a29.23,29.23,0,0,0,9.5.47c2.79-.32,10-1.15,15.2-6.84a19.46,19.46,0,0,0,3.52-5.42,22,22,0,0,0-2.47-10.64c-1-1.93-4.52-7.61-15.23-11.4-22.68-8-43.64,4.58-48.54-3.23a6.33,6.33,0,0,1-.84-3.89,7.44,7.44,0,0,1,.76-2.47c2.78-5.24,18.34-6.27,18.34-6.27a191.52,191.52,0,0,1,26.6.09A45.17,45.17,0,0,1,195.79,119a36.5,36.5,0,0,1,12.35,10.45c7.41,10.33,6,22.35,5.42,25.93a32.27,32.27,0,0,1-8.76,15.47c-14.16,13.58-35.72,7.15-36.72,6.83l-44.59-8.23a34.83,34.83,0,0,0-36.11,25.84,29.6,29.6,0,0,0,22.43,29.39l48.64,1.77c2.77.05,19.91.63,31.47,14.58a40.28,40.28,0,0,1,8.81,20.77,38.22,38.22,0,0,1-25.08,35c-1.21.36-9,2.56-16.21-2.15a18.88,18.88,0,0,1-7-8.49,2.69,2.69,0,0,1,.13-1.65c1-2.35,6-3,12.41-1.77a21.55,21.55,0,0,0,12.54-7.86,21.07,21.07,0,0,0,4.18-10.76,21.92,21.92,0,0,0-16-20.15l-47.12-1.14a16.11,16.11,0,0,0-5.45,7.1,15.81,15.81,0,0,0-1,7,18.39,18.39,0,0,0,.88,6.58,20.73,20.73,0,0,0,7.6,10.39c1.71,1.16,3,1.6,3.93,3.29a7.72,7.72,0,0,1,.51,5.2,4.66,4.66,0,0,1-1.9,3.17c-3.3,2.05-10.4-2-17.87-10A37.11,37.11,0,0,0,84,308.13,33.69,33.69,0,0,0,89.54,323a34.58,34.58,0,0,0,18.36,13.3,48.19,48.19,0,0,0,22,0c7.39-3.45,10.88-6,12.69-7.81,1.24-1.22,2.58-2.33,3.78-3.59,1.77-1.87,2.41-2.85,3.8-3.29a5.68,5.68,0,0,1,3.92.38,9.47,9.47,0,0,1,1.9,3.8c1.26,5.4-3,10.42-5.19,12.92-9.09,10.6-23.32,12.8-26.1,13.18a49.82,49.82,0,0,1-29.39-5.33,19,19,0,0,0-1.26,6.59,19.23,19.23,0,0,0,1.26,7.1A22.89,22.89,0,0,0,114,371.6l62.32,5.32c4.53.89,13.69,3.17,21.16,8.74a19.59,19.59,0,0,1,6.2,6.84,18.36,18.36,0,0,1,2,8.36c-.16.85-1.4,7-7.09,10a14.58,14.58,0,0,1-16.09-2c-.93-3-.44-4.27.13-4.87,1-1.1,2.71-.4,4-1.52s1.34-3,1.25-4.34a8,8,0,0,0-.93-1.55,10.07,10.07,0,0,0-5.16-3.28,31.54,31.54,0,0,0-7.83-1.6q-5.29-.36-10.64-.76-15.7-1.17-31-2.61a75.16,75.16,0,0,0,50,38.33c2.29.31,20,2.37,33.57-10.77a40.89,40.89,0,0,0,12-26.47,50,50,0,0,0-33.83-44.09,34.62,34.62,0,0,0-14.56-2c-6.19.53-11,2.27-13.55-.31a5.89,5.89,0,0,1-1.4-4.25,12,12,0,0,1,1.64-3.8c1.17-1.76,3.44-4.14,9.25-5.83a42.23,42.23,0,0,1,19.13-.63,59.91,59.91,0,0,1,25.08,11.4c6.54,1.88,9.59-.07,10.43-.69,7-5.12,1.36-21.1.72-22.88A38,38,0,0,0,223.44,304c-4.49-5.49-8.51-7.53-11.4-8.36-.34-.1-2.34-1-6.34-2.79a6.83,6.83,0,0,1-2.62-1.87,6.73,6.73,0,0,1-1.31-2.56,9.69,9.69,0,0,1,.89-4.31c2.39-5,8.32-4.95,15.33-9.63a39.4,39.4,0,0,0,7.47-6.84c2.4-2.85,7.25-9.73,7.86-22.08a30.79,30.79,0,0,0-1.86-19c-7.46-16.38-27.35-18.24-28.16-18.3-31.49-2.55-51.82-3.94-58.89-3.9a42.16,42.16,0,0,1-8.13-.91c-4.61-1-8.36-1.74-10.89-4.82a12.25,12.25,0,0,1-2.54-8.36,4.77,4.77,0,0,1,5.07-3.55,4.72,4.72,0,0,1,4,3.92c9,1.27,18.65,2.3,28.92,2.93a368.74,368.74,0,0,0,40.15.25,40.66,40.66,0,0,0,24.33-30.4,47.19,47.19,0,0,0,1.39-19.26c-.86-6.24-1.67-12.07-6.08-16.21-1.38-1.31-2.53-1.89-7.6-6.09-2.22-1.83-4-3.38-5.19-4.43,1.52-2.36,3.88-5,7.22-5.7,9.09-1.79,17.81,13,19.25,15.46,6.42,10.89,6.47,22.24,5.83,28.88a60.6,60.6,0,0,1-22.8,41.55,49.58,49.58,0,0,1,24.07,21.28,49.06,49.06,0,0,1,6.08,25.84,57.65,57.65,0,0,1-3.3,19.26,58.36,58.36,0,0,1-15.45,23.31,49.51,49.51,0,0,1,19.38,40.28A34.14,34.14,0,0,1,242.28,347a33.37,33.37,0,0,1-9.34,9,59,59,0,0,1,9.12,33.06,47.41,47.41,0,0,1-5.32,23.56A22,22,0,0,0,254,424" transform="translate(-5 -5)"/><path class="cls-5" d="M254,64.91a27.75,27.75,0,0,0-21.92,8.74,21.73,21.73,0,0,1,3.17,6.84,21.47,21.47,0,0,1,.63,7.34c-.27,1.5-1.79,9.5-6.48,14.08a10.39,10.39,0,0,1-5.74,3.28,8.62,8.62,0,0,1-3.14-.1,9,9,0,0,1-1.61-4.18c-.32-3.09,1.33-4.85,2.47-9.31a28.42,28.42,0,0,0,.82-5.54,34,34,0,0,0-10.51-14.88c-14-11.2-31.89-6.1-33.83-5.51a32.72,32.72,0,0,0-16.21,14.06c3.88,0,33,.23,41.93,18a24,24,0,0,1,2,5.84,34.8,34.8,0,0,1-10.08.6c-7.45-.65-10.94-3.46-20.52-5.79a75.87,75.87,0,0,0-9.18-1.65c-6.69.74-22,3.12-35.76,12-4.55,2.94-11.33,7.44-16.18,16a38.69,38.69,0,0,0-2.79,6.06,24,24,0,0,0,4.72,21.93,71.22,71.22,0,0,1,12.9.14,72.6,72.6,0,0,1,10,1.76L171.37,163a29.23,29.23,0,0,0,9.5.47c2.79-.32,10-1.15,15.2-6.84a19.46,19.46,0,0,0,3.52-5.42,22,22,0,0,0-2.47-10.64c-1-1.93-4.52-7.61-15.23-11.4-22.68-8-43.64,4.58-48.54-3.23a6.33,6.33,0,0,1-.84-3.89,7.44,7.44,0,0,1,.76-2.47c2.78-5.24,18.34-6.27,18.34-6.27a191.52,191.52,0,0,1,26.6.09A45.17,45.17,0,0,1,195.79,119a36.5,36.5,0,0,1,12.35,10.45c7.41,10.33,6,22.35,5.42,25.93a32.27,32.27,0,0,1-8.76,15.47c-14.16,13.58-35.72,7.15-36.72,6.83l-44.59-8.23a34.83,34.83,0,0,0-36.11,25.84,29.6,29.6,0,0,0,22.43,29.39l48.64,1.77c2.77.05,19.91.63,31.47,14.58a40.28,40.28,0,0,1,8.81,20.77,38.22,38.22,0,0,1-25.08,35c-1.21.36-9,2.56-16.21-2.15a18.88,18.88,0,0,1-7-8.49,2.69,2.69,0,0,1,.13-1.65c1-2.35,6-3,12.41-1.77a21.55,21.55,0,0,0,12.54-7.86,21.07,21.07,0,0,0,4.18-10.76,21.92,21.92,0,0,0-16-20.15l-47.12-1.14a16.11,16.11,0,0,0-5.45,7.1,15.81,15.81,0,0,0-1,7,18.39,18.39,0,0,0,.88,6.58,20.73,20.73,0,0,0,7.6,10.39c1.71,1.16,3,1.6,3.93,3.29a7.72,7.72,0,0,1,.51,5.2,4.66,4.66,0,0,1-1.9,3.17c-3.3,2.05-10.4-2-17.87-10A37.11,37.11,0,0,0,84,308.13,33.69,33.69,0,0,0,89.54,323a34.58,34.58,0,0,0,18.36,13.3,48.19,48.19,0,0,0,22,0c7.39-3.45,10.88-6,12.69-7.81,1.24-1.22,2.58-2.33,3.78-3.59,1.77-1.87,2.41-2.85,3.8-3.29a5.68,5.68,0,0,1,3.92.38,9.47,9.47,0,0,1,1.9,3.8c1.26,5.4-3,10.42-5.19,12.92-9.09,10.6-23.32,12.8-26.1,13.18a49.82,49.82,0,0,1-29.39-5.33,19,19,0,0,0-1.26,6.59,19.23,19.23,0,0,0,1.26,7.1A22.89,22.89,0,0,0,114,371.6l62.32,5.32c4.53.89,13.69,3.17,21.16,8.74a19.59,19.59,0,0,1,6.2,6.84,18.36,18.36,0,0,1,2,8.36c-.16.85-1.4,7-7.09,10a14.58,14.58,0,0,1-16.09-2c-.93-3-.44-4.27.13-4.87,1-1.1,2.71-.4,4-1.52s1.34-3,1.25-4.34a8,8,0,0,0-.93-1.55,10.07,10.07,0,0,0-5.16-3.28,31.54,31.54,0,0,0-7.83-1.6q-5.29-.36-10.64-.76-15.7-1.17-31-2.61a75.16,75.16,0,0,0,50,38.33c2.29.31,20,2.37,33.57-10.77a40.89,40.89,0,0,0,12-26.47,50,50,0,0,0-33.83-44.09,34.62,34.62,0,0,0-14.56-2c-6.19.53-11,2.27-13.55-.31a5.89,5.89,0,0,1-1.4-4.25,12,12,0,0,1,1.64-3.8c1.17-1.76,3.44-4.14,9.25-5.83a42.23,42.23,0,0,1,19.13-.63,59.91,59.91,0,0,1,25.08,11.4c6.54,1.88,9.59-.07,10.43-.69,7-5.12,1.36-21.1.72-22.88A38,38,0,0,0,223.44,304c-4.49-5.49-8.51-7.53-11.4-8.36-.34-.1-2.34-1-6.34-2.79a6.83,6.83,0,0,1-2.62-1.87,6.73,6.73,0,0,1-1.31-2.56,9.69,9.69,0,0,1,.89-4.31c2.39-5,8.32-4.95,15.33-9.63a39.4,39.4,0,0,0,7.47-6.84c2.4-2.85,7.25-9.73,7.86-22.08a30.79,30.79,0,0,0-1.86-19c-7.46-16.38-27.35-18.24-28.16-18.3-31.49-2.55-51.82-3.94-58.89-3.9a42.16,42.16,0,0,1-8.13-.91c-4.61-1-8.36-1.74-10.89-4.82a12.25,12.25,0,0,1-2.54-8.36,4.77,4.77,0,0,1,5.07-3.55,4.72,4.72,0,0,1,4,3.92c9,1.27,18.65,2.3,28.92,2.93a368.74,368.74,0,0,0,40.15.25,40.66,40.66,0,0,0,24.33-30.4,47.19,47.19,0,0,0,1.39-19.26c-.86-6.24-1.67-12.07-6.08-16.21-1.38-1.31-2.53-1.89-7.6-6.09-2.22-1.83-4-3.38-5.19-4.43,1.52-2.36,3.88-5,7.22-5.7,9.09-1.79,17.81,13,19.25,15.46,6.42,10.89,6.47,22.24,5.83,28.88a60.6,60.6,0,0,1-22.8,41.55,49.58,49.58,0,0,1,24.07,21.28,49.06,49.06,0,0,1,6.08,25.84,57.65,57.65,0,0,1-3.3,19.26,58.36,58.36,0,0,1-15.45,23.31,49.51,49.51,0,0,1,19.38,40.28A34.14,34.14,0,0,1,242.28,347a33.37,33.37,0,0,1-9.34,9,59,59,0,0,1,9.12,33.06,47.41,47.41,0,0,1-5.32,23.56A22,22,0,0,0,254,424" transform="translate(-5 -5)"/><path class="cls-4" d="M98.21,263.76a28.67,28.67,0,0,1,5.33-22.71,30.79,30.79,0,0,1-13.69-6.55c-1.47.82-11.92,6.88-14.34,19.76a29.32,29.32,0,0,0,4.56,21.47,40.46,40.46,0,0,1,9.12-7.79,40,40,0,0,1,9-4.18" transform="translate(-5 -5)"/><path class="cls-5" d="M98.21,263.76a28.67,28.67,0,0,1,5.33-22.71,30.79,30.79,0,0,1-13.69-6.55c-1.47.82-11.92,6.88-14.34,19.76a29.32,29.32,0,0,0,4.56,21.47,40.46,40.46,0,0,1,9.12-7.79A40,40,0,0,1,98.21,263.76Z" transform="translate(-5 -5)"/><path class="cls-4" d="M250.86,64.91a27.71,27.71,0,0,1,21.91,8.74A21.66,21.66,0,0,0,269,87.83c.27,1.5,1.79,9.5,6.49,14.08a10.32,10.32,0,0,0,5.74,3.28,8.57,8.57,0,0,0,3.13-.1,8.89,8.89,0,0,0,1.62-4.18c.32-3.09-1.33-4.85-2.47-9.31a27,27,0,0,1-.82-5.54,33.86,33.86,0,0,1,10.51-14.88c14-11.2,31.88-6.1,33.82-5.51a32.69,32.69,0,0,1,16.22,14.06c-3.88,0-33,.23-41.93,18a23.55,23.55,0,0,0-2,5.84,34.74,34.74,0,0,0,10.07.6c7.46-.65,10.94-3.46,20.52-5.79A76.3,76.3,0,0,1,339,96.7c6.69.74,22,3.12,35.75,12,4.56,2.94,11.34,7.44,16.19,16a40.65,40.65,0,0,1,2.79,6.06A24.06,24.06,0,0,1,389,152.69a71.11,71.11,0,0,0-12.89.14,72.33,72.33,0,0,0-10,1.76L333.45,163a29.22,29.22,0,0,1-9.5.47c-2.78-.32-10-1.15-15.2-6.84a19.38,19.38,0,0,1-3.51-5.42,21.78,21.78,0,0,1,2.47-10.64c1-1.93,4.52-7.61,15.23-11.4,22.67-8,43.63,4.58,48.53-3.23a6.26,6.26,0,0,0,.84-3.89,7.17,7.17,0,0,0-.76-2.47c-2.77-5.24-18.33-6.27-18.33-6.27a191.67,191.67,0,0,0-26.61.09A45.18,45.18,0,0,0,309,119a36.52,36.52,0,0,0-12.36,10.45c-7.41,10.33-6,22.35-5.41,25.93A32.24,32.24,0,0,0,300,170.82c14.16,13.58,35.73,7.15,36.73,6.83l44.59-8.23a34.83,34.83,0,0,1,36.1,25.84A29.61,29.61,0,0,1,395,224.65l-48.64,1.77c-2.77.05-19.92.63-31.48,14.58a40.37,40.37,0,0,0-8.81,20.77,38.26,38.26,0,0,0,25.08,35c1.21.36,9.05,2.56,16.22-2.15a19,19,0,0,0,7-8.49,2.85,2.85,0,0,0-.13-1.65c-1-2.35-6-3-12.42-1.77a21.61,21.61,0,0,1-12.54-7.86,21.17,21.17,0,0,1-4.18-10.76,22,22,0,0,1,16-20.15l47.13-1.14a16.19,16.19,0,0,1,5.45,7.1,16,16,0,0,1,1,7,18.35,18.35,0,0,1-.89,6.58,20.73,20.73,0,0,1-7.6,10.39c-1.7,1.16-3,1.6-3.92,3.29a7.66,7.66,0,0,0-.51,5.2,4.63,4.63,0,0,0,1.9,3.17c3.3,2.05,10.4-2,17.86-10a37.05,37.05,0,0,1,19.38,32.68A33.64,33.64,0,0,1,415.29,323a34.6,34.6,0,0,1-18.37,13.3,48.14,48.14,0,0,1-22,0c-7.39-3.45-10.88-6-12.7-7.81-1.23-1.22-2.58-2.33-3.77-3.59-1.77-1.87-2.41-2.85-3.8-3.29a5.7,5.7,0,0,0-3.93.38,9.6,9.6,0,0,0-1.9,3.8c-1.26,5.4,3.05,10.42,5.2,12.92,9.09,10.6,23.32,12.8,26.09,13.18a49.82,49.82,0,0,0,29.39-5.33,19.06,19.06,0,0,1,0,13.69,22.89,22.89,0,0,1-18.62,11.4l-62.33,5.32c-4.52.89-13.68,3.17-21.15,8.74a19.75,19.75,0,0,0-6.21,6.84,18.49,18.49,0,0,0-2,8.36c.16.85,1.41,7,7.1,10a14.58,14.58,0,0,0,16.09-2c.93-3,.44-4.27-.13-4.87-1-1.1-2.72-.4-4.05-1.52s-1.34-3-1.26-4.34a8.17,8.17,0,0,1,.94-1.55,10.08,10.08,0,0,1,5.15-3.28,31.71,31.71,0,0,1,7.83-1.6c3.54-.24,7.08-.49,10.64-.76q15.72-1.17,31-2.61a75.1,75.1,0,0,1-50,38.33c-2.28.31-20,2.37-33.57-10.77a40.8,40.8,0,0,1-12-26.47,50,50,0,0,1,33.82-44.09,34.64,34.64,0,0,1,14.57-2c6.18.53,11,2.27,13.55-.31a5.93,5.93,0,0,0,1.4-4.25,12,12,0,0,0-1.65-3.8c-1.16-1.76-3.43-4.14-9.25-5.83a42.24,42.24,0,0,0-19.13-.63,60,60,0,0,0-25.08,11.4c-6.54,1.88-9.59-.07-10.43-.69-6.95-5.12-1.36-21.1-.72-22.88A38.15,38.15,0,0,1,281.39,304c4.49-5.49,8.51-7.53,11.4-8.36.33-.1,2.33-1,6.33-2.79a6.69,6.69,0,0,0,2.62-1.87,6.45,6.45,0,0,0,1.31-2.56,9.56,9.56,0,0,0-.89-4.31c-2.38-5-8.31-4.95-15.32-9.63a39.62,39.62,0,0,1-7.48-6.84c-2.4-2.85-7.24-9.73-7.85-22.08a30.84,30.84,0,0,1,1.85-19c7.47-16.38,27.35-18.24,28.17-18.3,31.48-2.55,51.82-3.94,58.88-3.9a42,42,0,0,0,8.13-.91c4.62-1,8.36-1.74,10.9-4.82a12.21,12.21,0,0,0,2.53-8.36,4.63,4.63,0,0,0-9.09.37c-9,1.27-18.64,2.3-28.91,2.93a368.93,368.93,0,0,1-40.16.25,40.62,40.62,0,0,1-24.32-30.4,47.17,47.17,0,0,1-1.4-19.26c.87-6.24,1.68-12.07,6.08-16.21,1.39-1.31,2.54-1.89,7.61-6.09,2.21-1.83,4-3.38,5.19-4.43-1.52-2.36-3.89-5-7.22-5.7-9.1-1.79-17.81,13-19.26,15.46C264.07,138,264,149.35,264.67,156a60.5,60.5,0,0,0,22.8,41.55,49.54,49.54,0,0,0-24.07,21.28,49,49,0,0,0-6.08,25.84,57.59,57.59,0,0,0,3.29,19.26,58.36,58.36,0,0,0,15.46,23.31,49.44,49.44,0,0,0-19.38,40.28A34.06,34.06,0,0,0,262.55,347a33.11,33.11,0,0,0,9.34,9,58.75,58.75,0,0,0-9.12,33.06,47.12,47.12,0,0,0,5.32,23.56A22,22,0,0,1,250.86,424" transform="translate(-5 -5)"/><path class="cls-5" d="M250.86,64.91a27.71,27.71,0,0,1,21.91,8.74A21.66,21.66,0,0,0,269,87.83c.27,1.5,1.79,9.5,6.49,14.08a10.32,10.32,0,0,0,5.74,3.28,8.57,8.57,0,0,0,3.13-.1,8.89,8.89,0,0,0,1.62-4.18c.32-3.09-1.33-4.85-2.47-9.31a27,27,0,0,1-.82-5.54,33.86,33.86,0,0,1,10.51-14.88c14-11.2,31.88-6.1,33.82-5.51a32.69,32.69,0,0,1,16.22,14.06c-3.88,0-33,.23-41.93,18a23.55,23.55,0,0,0-2,5.84,34.74,34.74,0,0,0,10.07.6c7.46-.65,10.94-3.46,20.52-5.79A76.3,76.3,0,0,1,339,96.7c6.69.74,22,3.12,35.75,12,4.56,2.94,11.34,7.44,16.19,16a40.65,40.65,0,0,1,2.79,6.06A24.06,24.06,0,0,1,389,152.69a71.11,71.11,0,0,0-12.89.14,72.33,72.33,0,0,0-10,1.76L333.45,163a29.22,29.22,0,0,1-9.5.47c-2.78-.32-10-1.15-15.2-6.84a19.38,19.38,0,0,1-3.51-5.42,21.78,21.78,0,0,1,2.47-10.64c1-1.93,4.52-7.61,15.23-11.4,22.67-8,43.63,4.58,48.53-3.23a6.26,6.26,0,0,0,.84-3.89,7.17,7.17,0,0,0-.76-2.47c-2.77-5.24-18.33-6.27-18.33-6.27a191.67,191.67,0,0,0-26.61.09A45.18,45.18,0,0,0,309,119a36.52,36.52,0,0,0-12.36,10.45c-7.41,10.33-6,22.35-5.41,25.93A32.24,32.24,0,0,0,300,170.82c14.16,13.58,35.73,7.15,36.73,6.83l44.59-8.23a34.83,34.83,0,0,1,36.1,25.84A29.61,29.61,0,0,1,395,224.65l-48.64,1.77c-2.77.05-19.92.63-31.48,14.58a40.37,40.37,0,0,0-8.81,20.77,38.26,38.26,0,0,0,25.08,35c1.21.36,9.05,2.56,16.22-2.15a19,19,0,0,0,7-8.49,2.85,2.85,0,0,0-.13-1.65c-1-2.35-6-3-12.42-1.77a21.61,21.61,0,0,1-12.54-7.86,21.17,21.17,0,0,1-4.18-10.76,22,22,0,0,1,16-20.15l47.13-1.14a16.19,16.19,0,0,1,5.45,7.1,16,16,0,0,1,1,7,18.35,18.35,0,0,1-.89,6.58,20.73,20.73,0,0,1-7.6,10.39c-1.7,1.16-3,1.6-3.92,3.29a7.66,7.66,0,0,0-.51,5.2,4.63,4.63,0,0,0,1.9,3.17c3.3,2.05,10.4-2,17.86-10a37.05,37.05,0,0,1,19.38,32.68A33.64,33.64,0,0,1,415.29,323a34.6,34.6,0,0,1-18.37,13.3,48.14,48.14,0,0,1-22,0c-7.39-3.45-10.88-6-12.7-7.81-1.23-1.22-2.58-2.33-3.77-3.59-1.77-1.87-2.41-2.85-3.8-3.29a5.7,5.7,0,0,0-3.93.38,9.6,9.6,0,0,0-1.9,3.8c-1.26,5.4,3.05,10.42,5.2,12.92,9.09,10.6,23.32,12.8,26.09,13.18a49.82,49.82,0,0,0,29.39-5.33,19.06,19.06,0,0,1,0,13.69,22.89,22.89,0,0,1-18.62,11.4l-62.33,5.32c-4.52.89-13.68,3.17-21.15,8.74a19.75,19.75,0,0,0-6.21,6.84,18.49,18.49,0,0,0-2,8.36c.16.85,1.41,7,7.1,10a14.58,14.58,0,0,0,16.09-2c.93-3,.44-4.27-.13-4.87-1-1.1-2.72-.4-4.05-1.52s-1.34-3-1.26-4.34a8.17,8.17,0,0,1,.94-1.55,10.08,10.08,0,0,1,5.15-3.28,31.71,31.71,0,0,1,7.83-1.6c3.54-.24,7.08-.49,10.64-.76q15.72-1.17,31-2.61a75.1,75.1,0,0,1-50,38.33c-2.28.31-20,2.37-33.57-10.77a40.8,40.8,0,0,1-12-26.47,50,50,0,0,1,33.82-44.09,34.64,34.64,0,0,1,14.57-2c6.18.53,11,2.27,13.55-.31a5.93,5.93,0,0,0,1.4-4.25,12,12,0,0,0-1.65-3.8c-1.16-1.76-3.43-4.14-9.25-5.83a42.24,42.24,0,0,0-19.13-.63,60,60,0,0,0-25.08,11.4c-6.54,1.88-9.59-.07-10.43-.69-6.95-5.12-1.36-21.1-.72-22.88A38.15,38.15,0,0,1,281.39,304c4.49-5.49,8.51-7.53,11.4-8.36.33-.1,2.33-1,6.33-2.79a6.69,6.69,0,0,0,2.62-1.87,6.45,6.45,0,0,0,1.31-2.56,9.56,9.56,0,0,0-.89-4.31c-2.38-5-8.31-4.95-15.32-9.63a39.62,39.62,0,0,1-7.48-6.84c-2.4-2.85-7.24-9.73-7.85-22.08a30.84,30.84,0,0,1,1.85-19c7.47-16.38,27.35-18.24,28.17-18.3,31.48-2.55,51.82-3.94,58.88-3.9a42,42,0,0,0,8.13-.91c4.62-1,8.36-1.74,10.9-4.82a12.21,12.21,0,0,0,2.53-8.36,4.63,4.63,0,0,0-9.09.37c-9,1.27-18.64,2.3-28.91,2.93a368.93,368.93,0,0,1-40.16.25,40.62,40.62,0,0,1-24.32-30.4,47.17,47.17,0,0,1-1.4-19.26c.87-6.24,1.68-12.07,6.08-16.21,1.39-1.31,2.54-1.89,7.61-6.09,2.21-1.83,4-3.38,5.19-4.43-1.52-2.36-3.89-5-7.22-5.7-9.1-1.79-17.81,13-19.26,15.46C264.07,138,264,149.35,264.67,156a60.5,60.5,0,0,0,22.8,41.55,49.54,49.54,0,0,0-24.07,21.28,49,49,0,0,0-6.08,25.84,57.59,57.59,0,0,0,3.29,19.26,58.36,58.36,0,0,0,15.46,23.31,49.44,49.44,0,0,0-19.38,40.28A34.06,34.06,0,0,0,262.55,347a33.11,33.11,0,0,0,9.34,9,58.75,58.75,0,0,0-9.12,33.06,47.12,47.12,0,0,0,5.32,23.56A22,22,0,0,1,250.86,424" transform="translate(-5 -5)"/><path class="cls-4" d="M406.61,263.76a28.62,28.62,0,0,0-5.32-22.71A30.66,30.66,0,0,0,415,234.5c1.48.82,11.92,6.88,14.35,19.76a29.32,29.32,0,0,1-4.56,21.47,40.68,40.68,0,0,0-9.12-7.79,40.28,40.28,0,0,0-9-4.18" transform="translate(-5 -5)"/><path class="cls-5" d="M406.61,263.76a28.62,28.62,0,0,0-5.32-22.71A30.66,30.66,0,0,0,415,234.5c1.48.82,11.92,6.88,14.35,19.76a29.32,29.32,0,0,1-4.56,21.47,40.68,40.68,0,0,0-9.12-7.79A40.28,40.28,0,0,0,406.61,263.76Z" transform="translate(-5 -5)"/></g></g></g></svg>